<svg xmlns="http://www.w3.org/2000/svg" viewBox="0 0 595.64 793.71"><defs><style>.cls-1{fill:none;stroke:#000;stroke-miterlimit:10;stroke-width:0.5px;}</style></defs><g id="frog"><path class="cls-1" d="M131,267.43c0-10.2,4.39-18,13.74-23.06,13.66-9.27,42.65-21.11,43-20.39l16.41-10.65c3.75-2.08,7.26-3.57,10.2-3.54,4.23-3,11.59-4.71,19.5-6.21,7.28.54,15.1,3.92,23.28,9.14,1.07-2.67,12.34,8.81,12.2,15.69,2.52,6.89,4.15,12.9,0,13.3,1.56-2.5,4.79,6.2,8,14.63,2.07,3,2.41,6.77,1.33,11.09,3.73,5.41,4.13,11.55,2.21,18.18-2.73,4.12-7.39,6.57-13.74,7.53l-25.27,5.77-26.61,6.65-24.38,8-23.06,7.54c-14.32,3.37-24.3.88-27.93-10.2Z"/><path class="cls-1" d="M.25,313.81c15.87-12,32.07-21.32,48.74-26.93,7.11-8.1,17.49-11.52,32.26-8.65,3.92-2.65,15.15,4.21,27.6,12.64,6.61,3.54,8,8.86,6,15.3l11,13c2,8.25-2.09,16.91-7,25.61l-14.3,30.93-11.64,27.6C88.52,421.43,77.24,433.62,61,441.51c-5,9.68-24,22-60.72,37.58Z"/><path class="cls-1" d="M96.86,283.15c8.16-4.29,15.82-7.69,20.64-5.92,1.24-3.89,6.19-7.07,13.53-9.8l8.87,43.45,2.73,5.38-16.82,2.87-11-13C119.32,297.3,110.44,290.52,96.86,283.15Z"/><path class="cls-1" d="M.25,504.36c46.6-11.14,89.23-23,117.58-37.24-7.69-28.27-16.72-48.75-28.42-53.58"/><path class="cls-1" d="M135.73,317.44c21.08,13.4,31.3,34.59,34.64,60.72,1.84,18.71.89,34-5.65,42.4,7.48-1.46,5.34,17.13,5.65,30.59-13.46,6.19-31.69,11.36-52.54,16"/><path class="cls-1" d="M267.15,293.14l8.31,29.33,9.31,7.31,9.64,14.63c4.64,3.37,7.93,10.53,10.64,19.28,7.39,8.57,8.21,31.11,7.32,38.58-29.36,13-56.18,9.23-82.47,15-13.67-1.83-26.6,1.27-38.25,13l-10.64,3c-1,8-5.08,13.6-10.64,17.95"/></g><g id="mountain"><path class="cls-1" d="M.25,246.31,25.72,248c16.47-.51,31.51.25,43.23,4l13.3-2.83c16.08-8.09,30.1-12.5,37.49-5.15,10.92-4,20.62-5.26,28.08-1.57"/><path class="cls-1" d="M270.46,231.56H282c2-7.93,13.73-6.81,27-4.21,9.76-1,16.95,0,19.95,4.21,2.63-5.63,15.81-.9,29.27,4.11l26.6,10.42,15,2.55,25.6,12,30.93,16.62c9.72.59,27.53,17,29.59,20.29,8.71-3,36.49,12.61,37.91,17.62l71.67,36.92"/><path class="cls-1" d="M425.43,260.61c20.78,0,39,1.53,47.89,8.31,10.07-1.88,18.3-2.1,23.94,0a76.86,76.86,0,0,1,27.6-5.89c11-.57,20.68-.29,27.6,1.73,13.66-3.81,28.08-1.92,43.07,4.16"/></g><g id="ground"><path class="cls-1" d="M312.65,396.85c25.72,9.32,50,17.45,68.55,20.72l72.5,15,61.52,8,36.58,4h29.26l14.47-3.66"/><path class="cls-1" d="M.25,570.87l332.07-66.51,35.25-9.64,56.86-11L467,473.1l22.61-9.31,30.93-7.32A46,46,0,0,1,537.82,443"/><polygon class="cls-1" points="274.57 445.39 277.82 515.28 281.12 514.61 276.9 445.39 274.57 445.39"/><polygon class="cls-1" points="390.96 449.38 392.42 489.92 393.87 489.64 392.41 449.38 390.96 449.38"/><polygon class="cls-1" points="450.26 436.08 452.09 476.81 452.37 483.08 454.09 483.08 453.7 476.42 451.37 436.08 450.26 436.08"/><polygon class="cls-1" points="487.17 424.33 488.95 461.24 490.06 461.24 488.61 424.33 487.17 424.33"/><path class="cls-1" d="M.25,469.65c101.52,21.18,197.19,26.13,274.32-20.27"/><path class="cls-1" d="M277.84,449.38c42,20.61,80.5,25.3,113.12,3.1"/><path class="cls-1" d="M392.48,451.15c20,10.87,39.45,10.56,57.94-11.47"/><path class="cls-1" d="M451.46,437.7c15.15,3.42,28.13,2.1,35.84-10.65"/><path class="cls-1" d="M.25,635.05c57.14-6.92,121.7-16,142.38-12.42,44.45-10.07,86.9-18.88,114.87-18.62l70.5-26.6L357.7,569l52.77-53.7c8.87-9.75,19.1-14.45,31-12.8l21.73-2.22,80.25-39,23.95-16.74c-7.42,4.82-15.24,9.5-27.94,12.31l-9.31,7.64-35.25,7c-9.68-.32-22.19,3.08-35.58,7.65l-45.23,10.64-44.22,9-20.29,5.65-56.86,12-135,25.94L.25,573.86"/><path class="cls-1" d="M595.53,480.33c-12.92.06-23.51,2.18-28.1,9.59-25.72,7.68-27.94,17.88-25.72,22.75s34.58,10.2,36.8,24.39-10.64,12-16.85,20-15.52,19.07-11.53,27,19.07-.89,27.49,6.21,4.63,21.24,17.91,21.72"/></g></svg>